#define template_mark_width 16
#define template_mark_height 16
static unsigned char template_mark_bits[] = {
   0x3f, 0x00, 0x41, 0x00, 0x41, 0x00, 0x3f, 0x00, 0x07, 0x00, 0x19, 0x00,
   0x61, 0x00, 0x00, 0x00, 0x00, 0x00, 0x00, 0x00, 0x00, 0x00, 0x00, 0x00,
   0x00, 0x00, 0x00, 0x00, 0x00, 0x00, 0x00, 0x00};
